<?xml version="1.0" encoding="utf-8" standalone="no"?>
<!DOCTYPE svg PUBLIC "-//W3C//DTD SVG 1.1//EN"
  "http://www.w3.org/Graphics/SVG/1.1/DTD/svg11.dtd">
<svg xmlns:xlink="http://www.w3.org/1999/xlink" width="439.64pt" height="323.29pt" viewBox="0 0 439.64 323.29" xmlns="http://www.w3.org/2000/svg" version="1.1">
 <metadata>
  <rdf:RDF xmlns:dc="http://purl.org/dc/elements/1.1/" xmlns:cc="http://creativecommons.org/ns#" xmlns:rdf="http://www.w3.org/1999/02/22-rdf-syntax-ns#">
   <cc:Work>
    <dc:type rdf:resource="http://purl.org/dc/dcmitype/StillImage"/>
    <dc:date>2022-10-26T17:40:45.268133</dc:date>
    <dc:format>image/svg+xml</dc:format>
    <dc:creator>
     <cc:Agent>
      <dc:title>Matplotlib v3.5.2, https://matplotlib.org/</dc:title>
     </cc:Agent>
    </dc:creator>
   </cc:Work>
  </rdf:RDF>
 </metadata>
 <defs>
  <style type="text/css">*{stroke-linejoin: round; stroke-linecap: butt}</style>
 </defs>
 <g id="figure_1">
  <g id="patch_1">
   <path d="M 0 323.29 
L 439.64 323.29 
L 439.64 0 
L 0 0 
z
" style="fill: #ffffff"/>
  </g>
  <g id="axes_1">
   <g id="patch_2">
    <path d="M 69.31 274.12 
L 432.44 274.12 
L 432.44 7.2 
L 69.31 7.2 
z
" style="fill: #ffffff"/>
   </g>
   <g id="PolyCollection_1">
    <defs>
     <path id="mc27f3100af" d="M 85.815909 -303.957273 
L 85.815909 -175.388728 
L 91.411133 -142.478783 
L 97.006356 -131.984184 
L 102.601579 -126.024945 
L 108.196803 -124.263268 
L 113.792026 -121.893912 
L 119.38725 -120.674028 
L 124.982473 -121.002309 
L 130.577696 -120.045165 
L 136.17292 -119.966866 
L 141.768143 -119.551859 
L 147.363367 -118.92837 
L 152.95859 -118.657931 
L 158.553814 -118.719694 
L 164.149037 -119.02147 
L 169.74426 -119.085268 
L 175.339484 -118.32525 
L 180.934707 -118.922765 
L 186.529931 -118.755469 
L 192.125154 -118.601864 
L 197.720378 -118.629715 
L 203.315601 -118.521004 
L 208.910824 -119.014849 
L 214.506048 -119.171923 
L 220.101271 -118.64089 
L 225.696495 -118.70875 
L 231.291718 -118.974776 
L 236.886941 -118.908375 
L 242.482165 -118.755794 
L 248.077388 -119.002554 
L 253.672612 -119.293238 
L 259.267835 -119.078006 
L 264.863059 -119.148439 
L 270.458282 -119.382633 
L 276.053505 -119.30333 
L 281.648729 -119.192159 
L 287.243952 -119.637976 
L 292.839176 -119.463507 
L 298.434399 -119.503719 
L 304.029622 -119.247475 
L 309.624846 -119.668708 
L 315.220069 -119.27001 
L 320.815293 -119.615119 
L 326.410516 -119.434194 
L 332.00574 -119.368611 
L 337.600963 -119.722153 
L 343.196186 -120.00896 
L 348.79141 -119.843689 
L 354.386633 -119.647709 
L 359.981857 -119.813508 
L 365.57708 -119.621975 
L 371.172304 -120.025058 
L 376.767527 -119.90021 
L 382.36275 -119.667104 
L 387.957974 -119.997081 
L 393.553197 -119.926067 
L 399.148421 -120.056116 
L 404.743644 -119.976677 
L 410.338867 -119.921505 
L 415.934091 -120.092663 
L 415.934091 -134.185781 
L 415.934091 -134.185781 
L 410.338867 -134.224549 
L 404.743644 -134.405892 
L 399.148421 -134.613848 
L 393.553197 -134.555258 
L 387.957974 -135.036867 
L 382.36275 -134.901374 
L 376.767527 -134.823914 
L 371.172304 -135.332714 
L 365.57708 -135.234939 
L 359.981857 -135.623235 
L 354.386633 -135.726521 
L 348.79141 -135.424718 
L 343.196186 -135.709565 
L 337.600963 -135.906006 
L 332.00574 -136.052502 
L 326.410516 -136.249504 
L 320.815293 -136.189864 
L 315.220069 -136.205014 
L 309.624846 -136.657676 
L 304.029622 -136.734699 
L 298.434399 -137.362366 
L 292.839176 -137.181251 
L 287.243952 -137.658531 
L 281.648729 -137.991358 
L 276.053505 -138.103425 
L 270.458282 -138.343899 
L 264.863059 -138.36831 
L 259.267835 -138.485626 
L 253.672612 -139.281329 
L 248.077388 -139.180915 
L 242.482165 -139.350614 
L 236.886941 -139.925623 
L 231.291718 -140.246533 
L 225.696495 -140.54571 
L 220.101271 -141.027451 
L 214.506048 -141.812496 
L 208.910824 -142.15693 
L 203.315601 -142.233752 
L 197.720378 -143.214036 
L 192.125154 -143.373379 
L 186.529931 -144.115132 
L 180.934707 -144.857803 
L 175.339484 -145.200789 
L 169.74426 -146.813118 
L 164.149037 -147.792109 
L 158.553814 -148.643176 
L 152.95859 -149.609398 
L 147.363367 -150.937928 
L 141.768143 -153.16518 
L 136.17292 -155.273844 
L 130.577696 -157.315659 
L 124.982473 -159.67112 
L 119.38725 -163.332456 
L 113.792026 -167.613382 
L 108.196803 -174.103861 
L 102.601579 -183.10701 
L 97.006356 -197.885879 
L 91.411133 -224.154847 
L 85.815909 -303.957273 
z
" style="stroke: #00bfff; stroke-opacity: 0.2"/>
    </defs>
    <g clip-path="url(#pdb41b72224)">
     <use xlink:href="#mc27f3100af" x="0" y="323.29" style="fill: #87cefa; fill-opacity: 0.2; stroke: #00bfff; stroke-opacity: 0.2"/>
    </g>
   </g>
   <g id="PolyCollection_2">
    <defs>
     <path id="m985835ddc8" d="M 85.815909 -184.152371 
L 85.815909 -102.15272 
L 91.411133 -87.496773 
L 97.006356 -83.634913 
L 102.601579 -80.832561 
L 108.196803 -80.174581 
L 113.792026 -80.171937 
L 119.38725 -79.937493 
L 124.982473 -79.606951 
L 130.577696 -79.885525 
L 136.17292 -79.585334 
L 141.768143 -79.650259 
L 147.363367 -79.539418 
L 152.95859 -79.744028 
L 158.553814 -79.71082 
L 164.149037 -79.84601 
L 169.74426 -80.056524 
L 175.339484 -79.801439 
L 180.934707 -79.717366 
L 186.529931 -80.133191 
L 192.125154 -79.863579 
L 197.720378 -80.114228 
L 203.315601 -80.162443 
L 208.910824 -80.415539 
L 214.506048 -80.132968 
L 220.101271 -80.486118 
L 225.696495 -80.428556 
L 231.291718 -80.458192 
L 236.886941 -80.470995 
L 242.482165 -80.53482 
L 248.077388 -80.718042 
L 253.672612 -80.709699 
L 259.267835 -80.795026 
L 264.863059 -80.819597 
L 270.458282 -80.687345 
L 276.053505 -80.757258 
L 281.648729 -80.904669 
L 287.243952 -80.956319 
L 292.839176 -80.97469 
L 298.434399 -81.068135 
L 304.029622 -81.131755 
L 309.624846 -80.934938 
L 315.220069 -81.094838 
L 320.815293 -81.117619 
L 326.410516 -81.250902 
L 332.00574 -81.142941 
L 337.600963 -81.121644 
L 343.196186 -81.173524 
L 348.79141 -81.430137 
L 354.386633 -81.272008 
L 359.981857 -81.347278 
L 365.57708 -81.265933 
L 371.172304 -81.239612 
L 376.767527 -81.486134 
L 382.36275 -81.281783 
L 387.957974 -81.491243 
L 393.553197 -81.467172 
L 399.148421 -81.564609 
L 404.743644 -81.525029 
L 410.338867 -81.571282 
L 415.934091 -81.480075 
L 415.934091 -90.733617 
L 415.934091 -90.733617 
L 410.338867 -90.967557 
L 404.743644 -90.895886 
L 399.148421 -91.035914 
L 393.553197 -91.099376 
L 387.957974 -91.252798 
L 382.36275 -91.098256 
L 376.767527 -91.105915 
L 371.172304 -91.344287 
L 365.57708 -91.283568 
L 359.981857 -91.421277 
L 354.386633 -91.5831 
L 348.79141 -91.516071 
L 343.196186 -91.627361 
L 337.600963 -91.654028 
L 332.00574 -91.936723 
L 326.410516 -91.9814 
L 320.815293 -91.90812 
L 315.220069 -92.080615 
L 309.624846 -92.045823 
L 304.029622 -92.244421 
L 298.434399 -92.394845 
L 292.839176 -92.601358 
L 287.243952 -92.689213 
L 281.648729 -92.89207 
L 276.053505 -92.974515 
L 270.458282 -93.138943 
L 264.863059 -93.419737 
L 259.267835 -93.527756 
L 253.672612 -93.595035 
L 248.077388 -93.589509 
L 242.482165 -93.991262 
L 236.886941 -94.187307 
L 231.291718 -94.160939 
L 225.696495 -94.532155 
L 220.101271 -94.642622 
L 214.506048 -95.104735 
L 208.910824 -95.320183 
L 203.315601 -95.342439 
L 197.720378 -95.840716 
L 192.125154 -95.858355 
L 186.529931 -96.507686 
L 180.934707 -96.903654 
L 175.339484 -97.7268 
L 169.74426 -97.860277 
L 164.149037 -98.601807 
L 158.553814 -98.747626 
L 152.95859 -99.93817 
L 147.363367 -100.833575 
L 141.768143 -101.380086 
L 136.17292 -102.196594 
L 130.577696 -103.593767 
L 124.982473 -105.522602 
L 119.38725 -107.545096 
L 113.792026 -109.419027 
L 108.196803 -112.96831 
L 102.601579 -117.883512 
L 97.006356 -126.511937 
L 91.411133 -141.55135 
L 85.815909 -184.152371 
z
" style="stroke: #006400; stroke-opacity: 0.2"/>
    </defs>
    <g clip-path="url(#pdb41b72224)">
     <use xlink:href="#m985835ddc8" x="0" y="323.29" style="fill: #006400; fill-opacity: 0.2; stroke: #006400; stroke-opacity: 0.2"/>
    </g>
   </g>
   <g id="PolyCollection_3">
    <defs>
     <path id="m4ecbd7108c" d="M 91.411133 -153.625912 
L 91.411133 -81.010044 
L 102.601579 -67.674759 
L 113.792026 -64.173409 
L 124.982473 -62.396899 
L 136.17292 -62.016825 
L 147.363367 -61.573005 
L 158.553814 -61.302727 
L 169.74426 -61.78158 
L 180.934707 -61.511448 
L 192.125154 -61.56027 
L 203.315601 -61.648312 
L 214.506048 -61.481331 
L 225.696495 -61.422815 
L 236.886941 -61.472731 
L 248.077388 -61.782761 
L 259.267835 -61.930011 
L 270.458282 -61.63475 
L 281.648729 -61.840432 
L 292.839176 -62.003661 
L 304.029622 -61.890061 
L 315.220069 -62.086924 
L 326.410516 -61.90792 
L 337.600963 -62.275581 
L 348.79141 -62.381807 
L 359.981857 -62.17708 
L 371.172304 -62.300934 
L 382.36275 -62.423785 
L 393.553197 -62.476621 
L 404.743644 -62.370928 
L 415.934091 -62.634406 
L 415.934091 -74.630848 
L 415.934091 -74.630848 
L 404.743644 -74.893419 
L 393.553197 -75.028795 
L 382.36275 -75.297658 
L 371.172304 -75.415664 
L 359.981857 -75.766247 
L 348.79141 -76.16565 
L 337.600963 -76.335552 
L 326.410516 -76.325747 
L 315.220069 -76.790694 
L 304.029622 -76.857905 
L 292.839176 -77.289418 
L 281.648729 -77.760798 
L 270.458282 -77.98451 
L 259.267835 -78.72195 
L 248.077388 -79.23611 
L 236.886941 -79.61715 
L 225.696495 -80.359484 
L 214.506048 -80.853703 
L 203.315601 -82.014045 
L 192.125154 -82.799909 
L 180.934707 -83.883713 
L 169.74426 -85.223846 
L 158.553814 -87.196432 
L 147.363367 -88.906145 
L 136.17292 -92.125767 
L 124.982473 -96.338825 
L 113.792026 -104.211366 
L 102.601579 -117.161657 
L 91.411133 -153.625912 
z
" style="stroke: #9400d3; stroke-opacity: 0.2"/>
    </defs>
    <g clip-path="url(#pdb41b72224)">
     <use xlink:href="#m4ecbd7108c" x="0" y="323.29" style="fill: #9400d3; fill-opacity: 0.2; stroke: #9400d3; stroke-opacity: 0.2"/>
    </g>
   </g>
   <g id="matplotlib.axis_1">
    <g id="xtick_1">
     <g id="line2d_1">
      <path d="M 80.220686 274.12 
L 80.220686 7.2 
" clip-path="url(#pdb41b72224)" style="fill: none; stroke: #b0b0b0; stroke-width: 0.8; stroke-linecap: square"/>
     </g>
     <g id="line2d_2">
      <defs>
       <path id="ma9f2003263" d="M 0 0 
L 0 3.5 
" style="stroke: #000000; stroke-width: 0.8"/>
      </defs>
      <g>
       <use xlink:href="#ma9f2003263" x="80.220686" y="274.12" style="stroke: #000000; stroke-width: 0.8"/>
      </g>
     </g>
     <g id="text_1">
      <!-- 0 -->
      <g transform="translate(75.130686 293.2775)scale(0.16 -0.16)">
       <defs>
        <path id="DejaVuSans-30" d="M 2034 4250 
Q 1547 4250 1301 3770 
Q 1056 3291 1056 2328 
Q 1056 1369 1301 889 
Q 1547 409 2034 409 
Q 2525 409 2770 889 
Q 3016 1369 3016 2328 
Q 3016 3291 2770 3770 
Q 2525 4250 2034 4250 
z
M 2034 4750 
Q 2819 4750 3233 4129 
Q 3647 3509 3647 2328 
Q 3647 1150 3233 529 
Q 2819 -91 2034 -91 
Q 1250 -91 836 529 
Q 422 1150 422 2328 
Q 422 3509 836 4129 
Q 1250 4750 2034 4750 
z
" transform="scale(0.015625)"/>
       </defs>
       <use xlink:href="#DejaVuSans-30"/>
      </g>
     </g>
    </g>
    <g id="xtick_2">
     <g id="line2d_3">
      <path d="M 136.17292 274.12 
L 136.17292 7.2 
" clip-path="url(#pdb41b72224)" style="fill: none; stroke: #b0b0b0; stroke-width: 0.8; stroke-linecap: square"/>
     </g>
     <g id="line2d_4">
      <g>
       <use xlink:href="#ma9f2003263" x="136.17292" y="274.12" style="stroke: #000000; stroke-width: 0.8"/>
      </g>
     </g>
     <g id="text_2">
      <!-- 10 -->
      <g transform="translate(125.99292 293.2775)scale(0.16 -0.16)">
       <defs>
        <path id="DejaVuSans-31" d="M 794 531 
L 1825 531 
L 1825 4091 
L 703 3866 
L 703 4441 
L 1819 4666 
L 2450 4666 
L 2450 531 
L 3481 531 
L 3481 0 
L 794 0 
L 794 531 
z
" transform="scale(0.015625)"/>
       </defs>
       <use xlink:href="#DejaVuSans-31"/>
       <use xlink:href="#DejaVuSans-30" x="63.623047"/>
      </g>
     </g>
    </g>
    <g id="xtick_3">
     <g id="line2d_5">
      <path d="M 192.125154 274.12 
L 192.125154 7.2 
" clip-path="url(#pdb41b72224)" style="fill: none; stroke: #b0b0b0; stroke-width: 0.8; stroke-linecap: square"/>
     </g>
     <g id="line2d_6">
      <g>
       <use xlink:href="#ma9f2003263" x="192.125154" y="274.12" style="stroke: #000000; stroke-width: 0.8"/>
      </g>
     </g>
     <g id="text_3">
      <!-- 20 -->
      <g transform="translate(181.945154 293.2775)scale(0.16 -0.16)">
       <defs>
        <path id="DejaVuSans-32" d="M 1228 531 
L 3431 531 
L 3431 0 
L 469 0 
L 469 531 
Q 828 903 1448 1529 
Q 2069 2156 2228 2338 
Q 2531 2678 2651 2914 
Q 2772 3150 2772 3378 
Q 2772 3750 2511 3984 
Q 2250 4219 1831 4219 
Q 1534 4219 1204 4116 
Q 875 4013 500 3803 
L 500 4441 
Q 881 4594 1212 4672 
Q 1544 4750 1819 4750 
Q 2544 4750 2975 4387 
Q 3406 4025 3406 3419 
Q 3406 3131 3298 2873 
Q 3191 2616 2906 2266 
Q 2828 2175 2409 1742 
Q 1991 1309 1228 531 
z
" transform="scale(0.015625)"/>
       </defs>
       <use xlink:href="#DejaVuSans-32"/>
       <use xlink:href="#DejaVuSans-30" x="63.623047"/>
      </g>
     </g>
    </g>
    <g id="xtick_4">
     <g id="line2d_7">
      <path d="M 248.077388 274.12 
L 248.077388 7.2 
" clip-path="url(#pdb41b72224)" style="fill: none; stroke: #b0b0b0; stroke-width: 0.8; stroke-linecap: square"/>
     </g>
     <g id="line2d_8">
      <g>
       <use xlink:href="#ma9f2003263" x="248.077388" y="274.12" style="stroke: #000000; stroke-width: 0.8"/>
      </g>
     </g>
     <g id="text_4">
      <!-- 30 -->
      <g transform="translate(237.897388 293.2775)scale(0.16 -0.16)">
       <defs>
        <path id="DejaVuSans-33" d="M 2597 2516 
Q 3050 2419 3304 2112 
Q 3559 1806 3559 1356 
Q 3559 666 3084 287 
Q 2609 -91 1734 -91 
Q 1441 -91 1130 -33 
Q 819 25 488 141 
L 488 750 
Q 750 597 1062 519 
Q 1375 441 1716 441 
Q 2309 441 2620 675 
Q 2931 909 2931 1356 
Q 2931 1769 2642 2001 
Q 2353 2234 1838 2234 
L 1294 2234 
L 1294 2753 
L 1863 2753 
Q 2328 2753 2575 2939 
Q 2822 3125 2822 3475 
Q 2822 3834 2567 4026 
Q 2313 4219 1838 4219 
Q 1578 4219 1281 4162 
Q 984 4106 628 3988 
L 628 4550 
Q 988 4650 1302 4700 
Q 1616 4750 1894 4750 
Q 2613 4750 3031 4423 
Q 3450 4097 3450 3541 
Q 3450 3153 3228 2886 
Q 3006 2619 2597 2516 
z
" transform="scale(0.015625)"/>
       </defs>
       <use xlink:href="#DejaVuSans-33"/>
       <use xlink:href="#DejaVuSans-30" x="63.623047"/>
      </g>
     </g>
    </g>
    <g id="xtick_5">
     <g id="line2d_9">
      <path d="M 304.029622 274.12 
L 304.029622 7.2 
" clip-path="url(#pdb41b72224)" style="fill: none; stroke: #b0b0b0; stroke-width: 0.8; stroke-linecap: square"/>
     </g>
     <g id="line2d_10">
      <g>
       <use xlink:href="#ma9f2003263" x="304.029622" y="274.12" style="stroke: #000000; stroke-width: 0.8"/>
      </g>
     </g>
     <g id="text_5">
      <!-- 40 -->
      <g transform="translate(293.849622 293.2775)scale(0.16 -0.16)">
       <defs>
        <path id="DejaVuSans-34" d="M 2419 4116 
L 825 1625 
L 2419 1625 
L 2419 4116 
z
M 2253 4666 
L 3047 4666 
L 3047 1625 
L 3713 1625 
L 3713 1100 
L 3047 1100 
L 3047 0 
L 2419 0 
L 2419 1100 
L 313 1100 
L 313 1709 
L 2253 4666 
z
" transform="scale(0.015625)"/>
       </defs>
       <use xlink:href="#DejaVuSans-34"/>
       <use xlink:href="#DejaVuSans-30" x="63.623047"/>
      </g>
     </g>
    </g>
    <g id="xtick_6">
     <g id="line2d_11">
      <path d="M 359.981857 274.12 
L 359.981857 7.2 
" clip-path="url(#pdb41b72224)" style="fill: none; stroke: #b0b0b0; stroke-width: 0.8; stroke-linecap: square"/>
     </g>
     <g id="line2d_12">
      <g>
       <use xlink:href="#ma9f2003263" x="359.981857" y="274.12" style="stroke: #000000; stroke-width: 0.8"/>
      </g>
     </g>
     <g id="text_6">
      <!-- 50 -->
      <g transform="translate(349.801857 293.2775)scale(0.16 -0.16)">
       <defs>
        <path id="DejaVuSans-35" d="M 691 4666 
L 3169 4666 
L 3169 4134 
L 1269 4134 
L 1269 2991 
Q 1406 3038 1543 3061 
Q 1681 3084 1819 3084 
Q 2600 3084 3056 2656 
Q 3513 2228 3513 1497 
Q 3513 744 3044 326 
Q 2575 -91 1722 -91 
Q 1428 -91 1123 -41 
Q 819 9 494 109 
L 494 744 
Q 775 591 1075 516 
Q 1375 441 1709 441 
Q 2250 441 2565 725 
Q 2881 1009 2881 1497 
Q 2881 1984 2565 2268 
Q 2250 2553 1709 2553 
Q 1456 2553 1204 2497 
Q 953 2441 691 2322 
L 691 4666 
z
" transform="scale(0.015625)"/>
       </defs>
       <use xlink:href="#DejaVuSans-35"/>
       <use xlink:href="#DejaVuSans-30" x="63.623047"/>
      </g>
     </g>
    </g>
    <g id="xtick_7">
     <g id="line2d_13">
      <path d="M 415.934091 274.12 
L 415.934091 7.2 
" clip-path="url(#pdb41b72224)" style="fill: none; stroke: #b0b0b0; stroke-width: 0.8; stroke-linecap: square"/>
     </g>
     <g id="line2d_14">
      <g>
       <use xlink:href="#ma9f2003263" x="415.934091" y="274.12" style="stroke: #000000; stroke-width: 0.8"/>
      </g>
     </g>
     <g id="text_7">
      <!-- 60 -->
      <g transform="translate(405.754091 293.2775)scale(0.16 -0.16)">
       <defs>
        <path id="DejaVuSans-36" d="M 2113 2584 
Q 1688 2584 1439 2293 
Q 1191 2003 1191 1497 
Q 1191 994 1439 701 
Q 1688 409 2113 409 
Q 2538 409 2786 701 
Q 3034 994 3034 1497 
Q 3034 2003 2786 2293 
Q 2538 2584 2113 2584 
z
M 3366 4563 
L 3366 3988 
Q 3128 4100 2886 4159 
Q 2644 4219 2406 4219 
Q 1781 4219 1451 3797 
Q 1122 3375 1075 2522 
Q 1259 2794 1537 2939 
Q 1816 3084 2150 3084 
Q 2853 3084 3261 2657 
Q 3669 2231 3669 1497 
Q 3669 778 3244 343 
Q 2819 -91 2113 -91 
Q 1303 -91 875 529 
Q 447 1150 447 2328 
Q 447 3434 972 4092 
Q 1497 4750 2381 4750 
Q 2619 4750 2861 4703 
Q 3103 4656 3366 4563 
z
" transform="scale(0.015625)"/>
       </defs>
       <use xlink:href="#DejaVuSans-36"/>
       <use xlink:href="#DejaVuSans-30" x="63.623047"/>
      </g>
     </g>
    </g>
    <g id="text_8">
     <!-- ensemble size -->
     <g transform="translate(193.7225 312.7625)scale(0.16 -0.16)">
      <defs>
       <path id="DejaVuSans-65" d="M 3597 1894 
L 3597 1613 
L 953 1613 
Q 991 1019 1311 708 
Q 1631 397 2203 397 
Q 2534 397 2845 478 
Q 3156 559 3463 722 
L 3463 178 
Q 3153 47 2828 -22 
Q 2503 -91 2169 -91 
Q 1331 -91 842 396 
Q 353 884 353 1716 
Q 353 2575 817 3079 
Q 1281 3584 2069 3584 
Q 2775 3584 3186 3129 
Q 3597 2675 3597 1894 
z
M 3022 2063 
Q 3016 2534 2758 2815 
Q 2500 3097 2075 3097 
Q 1594 3097 1305 2825 
Q 1016 2553 972 2059 
L 3022 2063 
z
" transform="scale(0.015625)"/>
       <path id="DejaVuSans-6e" d="M 3513 2113 
L 3513 0 
L 2938 0 
L 2938 2094 
Q 2938 2591 2744 2837 
Q 2550 3084 2163 3084 
Q 1697 3084 1428 2787 
Q 1159 2491 1159 1978 
L 1159 0 
L 581 0 
L 581 3500 
L 1159 3500 
L 1159 2956 
Q 1366 3272 1645 3428 
Q 1925 3584 2291 3584 
Q 2894 3584 3203 3211 
Q 3513 2838 3513 2113 
z
" transform="scale(0.015625)"/>
       <path id="DejaVuSans-73" d="M 2834 3397 
L 2834 2853 
Q 2591 2978 2328 3040 
Q 2066 3103 1784 3103 
Q 1356 3103 1142 2972 
Q 928 2841 928 2578 
Q 928 2378 1081 2264 
Q 1234 2150 1697 2047 
L 1894 2003 
Q 2506 1872 2764 1633 
Q 3022 1394 3022 966 
Q 3022 478 2636 193 
Q 2250 -91 1575 -91 
Q 1294 -91 989 -36 
Q 684 19 347 128 
L 347 722 
Q 666 556 975 473 
Q 1284 391 1588 391 
Q 1994 391 2212 530 
Q 2431 669 2431 922 
Q 2431 1156 2273 1281 
Q 2116 1406 1581 1522 
L 1381 1569 
Q 847 1681 609 1914 
Q 372 2147 372 2553 
Q 372 3047 722 3315 
Q 1072 3584 1716 3584 
Q 2034 3584 2315 3537 
Q 2597 3491 2834 3397 
z
" transform="scale(0.015625)"/>
       <path id="DejaVuSans-6d" d="M 3328 2828 
Q 3544 3216 3844 3400 
Q 4144 3584 4550 3584 
Q 5097 3584 5394 3201 
Q 5691 2819 5691 2113 
L 5691 0 
L 5113 0 
L 5113 2094 
Q 5113 2597 4934 2840 
Q 4756 3084 4391 3084 
Q 3944 3084 3684 2787 
Q 3425 2491 3425 1978 
L 3425 0 
L 2847 0 
L 2847 2094 
Q 2847 2600 2669 2842 
Q 2491 3084 2119 3084 
Q 1678 3084 1418 2786 
Q 1159 2488 1159 1978 
L 1159 0 
L 581 0 
L 581 3500 
L 1159 3500 
L 1159 2956 
Q 1356 3278 1631 3431 
Q 1906 3584 2284 3584 
Q 2666 3584 2933 3390 
Q 3200 3197 3328 2828 
z
" transform="scale(0.015625)"/>
       <path id="DejaVuSans-62" d="M 3116 1747 
Q 3116 2381 2855 2742 
Q 2594 3103 2138 3103 
Q 1681 3103 1420 2742 
Q 1159 2381 1159 1747 
Q 1159 1113 1420 752 
Q 1681 391 2138 391 
Q 2594 391 2855 752 
Q 3116 1113 3116 1747 
z
M 1159 2969 
Q 1341 3281 1617 3432 
Q 1894 3584 2278 3584 
Q 2916 3584 3314 3078 
Q 3713 2572 3713 1747 
Q 3713 922 3314 415 
Q 2916 -91 2278 -91 
Q 1894 -91 1617 61 
Q 1341 213 1159 525 
L 1159 0 
L 581 0 
L 581 4863 
L 1159 4863 
L 1159 2969 
z
" transform="scale(0.015625)"/>
       <path id="DejaVuSans-6c" d="M 603 4863 
L 1178 4863 
L 1178 0 
L 603 0 
L 603 4863 
z
" transform="scale(0.015625)"/>
       <path id="DejaVuSans-20" transform="scale(0.015625)"/>
       <path id="DejaVuSans-69" d="M 603 3500 
L 1178 3500 
L 1178 0 
L 603 0 
L 603 3500 
z
M 603 4863 
L 1178 4863 
L 1178 4134 
L 603 4134 
L 603 4863 
z
" transform="scale(0.015625)"/>
       <path id="DejaVuSans-7a" d="M 353 3500 
L 3084 3500 
L 3084 2975 
L 922 459 
L 3084 459 
L 3084 0 
L 275 0 
L 275 525 
L 2438 3041 
L 353 3041 
L 353 3500 
z
" transform="scale(0.015625)"/>
      </defs>
      <use xlink:href="#DejaVuSans-65"/>
      <use xlink:href="#DejaVuSans-6e" x="61.523438"/>
      <use xlink:href="#DejaVuSans-73" x="124.902344"/>
      <use xlink:href="#DejaVuSans-65" x="177.001953"/>
      <use xlink:href="#DejaVuSans-6d" x="238.525391"/>
      <use xlink:href="#DejaVuSans-62" x="335.9375"/>
      <use xlink:href="#DejaVuSans-6c" x="399.414062"/>
      <use xlink:href="#DejaVuSans-65" x="427.197266"/>
      <use xlink:href="#DejaVuSans-20" x="488.720703"/>
      <use xlink:href="#DejaVuSans-73" x="520.507812"/>
      <use xlink:href="#DejaVuSans-69" x="572.607422"/>
      <use xlink:href="#DejaVuSans-7a" x="600.390625"/>
      <use xlink:href="#DejaVuSans-65" x="652.880859"/>
     </g>
    </g>
   </g>
   <g id="matplotlib.axis_2">
    <g id="ytick_1">
     <g id="line2d_15">
      <path d="M 69.31 266.941692 
L 432.44 266.941692 
" clip-path="url(#pdb41b72224)" style="fill: none; stroke: #b0b0b0; stroke-width: 0.8; stroke-linecap: square"/>
     </g>
     <g id="line2d_16">
      <defs>
       <path id="m5386f995da" d="M 0 0 
L -3.5 0 
" style="stroke: #000000; stroke-width: 0.8"/>
      </defs>
      <g>
       <use xlink:href="#m5386f995da" x="69.31" y="266.941692" style="stroke: #000000; stroke-width: 0.8"/>
      </g>
     </g>
     <g id="text_9">
      <!-- 0.56 -->
      <g transform="translate(26.685 273.020442)scale(0.16 -0.16)">
       <defs>
        <path id="DejaVuSans-2e" d="M 684 794 
L 1344 794 
L 1344 0 
L 684 0 
L 684 794 
z
" transform="scale(0.015625)"/>
       </defs>
       <use xlink:href="#DejaVuSans-30"/>
       <use xlink:href="#DejaVuSans-2e" x="63.623047"/>
       <use xlink:href="#DejaVuSans-35" x="95.410156"/>
       <use xlink:href="#DejaVuSans-36" x="159.033203"/>
      </g>
     </g>
    </g>
    <g id="ytick_2">
     <g id="line2d_17">
      <path d="M 69.31 218.307346 
L 432.44 218.307346 
" clip-path="url(#pdb41b72224)" style="fill: none; stroke: #b0b0b0; stroke-width: 0.8; stroke-linecap: square"/>
     </g>
     <g id="line2d_18">
      <g>
       <use xlink:href="#m5386f995da" x="69.31" y="218.307346" style="stroke: #000000; stroke-width: 0.8"/>
      </g>
     </g>
     <g id="text_10">
      <!-- 0.58 -->
      <g transform="translate(26.685 224.386096)scale(0.16 -0.16)">
       <defs>
        <path id="DejaVuSans-38" d="M 2034 2216 
Q 1584 2216 1326 1975 
Q 1069 1734 1069 1313 
Q 1069 891 1326 650 
Q 1584 409 2034 409 
Q 2484 409 2743 651 
Q 3003 894 3003 1313 
Q 3003 1734 2745 1975 
Q 2488 2216 2034 2216 
z
M 1403 2484 
Q 997 2584 770 2862 
Q 544 3141 544 3541 
Q 544 4100 942 4425 
Q 1341 4750 2034 4750 
Q 2731 4750 3128 4425 
Q 3525 4100 3525 3541 
Q 3525 3141 3298 2862 
Q 3072 2584 2669 2484 
Q 3125 2378 3379 2068 
Q 3634 1759 3634 1313 
Q 3634 634 3220 271 
Q 2806 -91 2034 -91 
Q 1263 -91 848 271 
Q 434 634 434 1313 
Q 434 1759 690 2068 
Q 947 2378 1403 2484 
z
M 1172 3481 
Q 1172 3119 1398 2916 
Q 1625 2713 2034 2713 
Q 2441 2713 2670 2916 
Q 2900 3119 2900 3481 
Q 2900 3844 2670 4047 
Q 2441 4250 2034 4250 
Q 1625 4250 1398 4047 
Q 1172 3844 1172 3481 
z
" transform="scale(0.015625)"/>
       </defs>
       <use xlink:href="#DejaVuSans-30"/>
       <use xlink:href="#DejaVuSans-2e" x="63.623047"/>
       <use xlink:href="#DejaVuSans-35" x="95.410156"/>
       <use xlink:href="#DejaVuSans-38" x="159.033203"/>
      </g>
     </g>
    </g>
    <g id="ytick_3">
     <g id="line2d_19">
      <path d="M 69.31 169.673 
L 432.44 169.673 
" clip-path="url(#pdb41b72224)" style="fill: none; stroke: #b0b0b0; stroke-width: 0.8; stroke-linecap: square"/>
     </g>
     <g id="line2d_20">
      <g>
       <use xlink:href="#m5386f995da" x="69.31" y="169.673" style="stroke: #000000; stroke-width: 0.8"/>
      </g>
     </g>
     <g id="text_11">
      <!-- 0.60 -->
      <g transform="translate(26.685 175.75175)scale(0.16 -0.16)">
       <use xlink:href="#DejaVuSans-30"/>
       <use xlink:href="#DejaVuSans-2e" x="63.623047"/>
       <use xlink:href="#DejaVuSans-36" x="95.410156"/>
       <use xlink:href="#DejaVuSans-30" x="159.033203"/>
      </g>
     </g>
    </g>
    <g id="ytick_4">
     <g id="line2d_21">
      <path d="M 69.31 121.038654 
L 432.44 121.038654 
" clip-path="url(#pdb41b72224)" style="fill: none; stroke: #b0b0b0; stroke-width: 0.8; stroke-linecap: square"/>
     </g>
     <g id="line2d_22">
      <g>
       <use xlink:href="#m5386f995da" x="69.31" y="121.038654" style="stroke: #000000; stroke-width: 0.8"/>
      </g>
     </g>
     <g id="text_12">
      <!-- 0.62 -->
      <g transform="translate(26.685 127.117404)scale(0.16 -0.16)">
       <use xlink:href="#DejaVuSans-30"/>
       <use xlink:href="#DejaVuSans-2e" x="63.623047"/>
       <use xlink:href="#DejaVuSans-36" x="95.410156"/>
       <use xlink:href="#DejaVuSans-32" x="159.033203"/>
      </g>
     </g>
    </g>
    <g id="ytick_5">
     <g id="line2d_23">
      <path d="M 69.31 72.404308 
L 432.44 72.404308 
" clip-path="url(#pdb41b72224)" style="fill: none; stroke: #b0b0b0; stroke-width: 0.8; stroke-linecap: square"/>
     </g>
     <g id="line2d_24">
      <g>
       <use xlink:href="#m5386f995da" x="69.31" y="72.404308" style="stroke: #000000; stroke-width: 0.8"/>
      </g>
     </g>
     <g id="text_13">
      <!-- 0.64 -->
      <g transform="translate(26.685 78.483058)scale(0.16 -0.16)">
       <use xlink:href="#DejaVuSans-30"/>
       <use xlink:href="#DejaVuSans-2e" x="63.623047"/>
       <use xlink:href="#DejaVuSans-36" x="95.410156"/>
       <use xlink:href="#DejaVuSans-34" x="159.033203"/>
      </g>
     </g>
    </g>
    <g id="ytick_6">
     <g id="line2d_25">
      <path d="M 69.31 23.769962 
L 432.44 23.769962 
" clip-path="url(#pdb41b72224)" style="fill: none; stroke: #b0b0b0; stroke-width: 0.8; stroke-linecap: square"/>
     </g>
     <g id="line2d_26">
      <g>
       <use xlink:href="#m5386f995da" x="69.31" y="23.769962" style="stroke: #000000; stroke-width: 0.8"/>
      </g>
     </g>
     <g id="text_14">
      <!-- 0.66 -->
      <g transform="translate(26.685 29.848712)scale(0.16 -0.16)">
       <use xlink:href="#DejaVuSans-30"/>
       <use xlink:href="#DejaVuSans-2e" x="63.623047"/>
       <use xlink:href="#DejaVuSans-36" x="95.410156"/>
       <use xlink:href="#DejaVuSans-36" x="159.033203"/>
      </g>
     </g>
    </g>
    <g id="text_15">
     <!-- mean of average RMSE scores -->
     <g transform="translate(19.3575 262.23625)rotate(-90)scale(0.16 -0.16)">
      <defs>
       <path id="DejaVuSans-61" d="M 2194 1759 
Q 1497 1759 1228 1600 
Q 959 1441 959 1056 
Q 959 750 1161 570 
Q 1363 391 1709 391 
Q 2188 391 2477 730 
Q 2766 1069 2766 1631 
L 2766 1759 
L 2194 1759 
z
M 3341 1997 
L 3341 0 
L 2766 0 
L 2766 531 
Q 2569 213 2275 61 
Q 1981 -91 1556 -91 
Q 1019 -91 701 211 
Q 384 513 384 1019 
Q 384 1609 779 1909 
Q 1175 2209 1959 2209 
L 2766 2209 
L 2766 2266 
Q 2766 2663 2505 2880 
Q 2244 3097 1772 3097 
Q 1472 3097 1187 3025 
Q 903 2953 641 2809 
L 641 3341 
Q 956 3463 1253 3523 
Q 1550 3584 1831 3584 
Q 2591 3584 2966 3190 
Q 3341 2797 3341 1997 
z
" transform="scale(0.015625)"/>
       <path id="DejaVuSans-6f" d="M 1959 3097 
Q 1497 3097 1228 2736 
Q 959 2375 959 1747 
Q 959 1119 1226 758 
Q 1494 397 1959 397 
Q 2419 397 2687 759 
Q 2956 1122 2956 1747 
Q 2956 2369 2687 2733 
Q 2419 3097 1959 3097 
z
M 1959 3584 
Q 2709 3584 3137 3096 
Q 3566 2609 3566 1747 
Q 3566 888 3137 398 
Q 2709 -91 1959 -91 
Q 1206 -91 779 398 
Q 353 888 353 1747 
Q 353 2609 779 3096 
Q 1206 3584 1959 3584 
z
" transform="scale(0.015625)"/>
       <path id="DejaVuSans-66" d="M 2375 4863 
L 2375 4384 
L 1825 4384 
Q 1516 4384 1395 4259 
Q 1275 4134 1275 3809 
L 1275 3500 
L 2222 3500 
L 2222 3053 
L 1275 3053 
L 1275 0 
L 697 0 
L 697 3053 
L 147 3053 
L 147 3500 
L 697 3500 
L 697 3744 
Q 697 4328 969 4595 
Q 1241 4863 1831 4863 
L 2375 4863 
z
" transform="scale(0.015625)"/>
       <path id="DejaVuSans-76" d="M 191 3500 
L 800 3500 
L 1894 563 
L 2988 3500 
L 3597 3500 
L 2284 0 
L 1503 0 
L 191 3500 
z
" transform="scale(0.015625)"/>
       <path id="DejaVuSans-72" d="M 2631 2963 
Q 2534 3019 2420 3045 
Q 2306 3072 2169 3072 
Q 1681 3072 1420 2755 
Q 1159 2438 1159 1844 
L 1159 0 
L 581 0 
L 581 3500 
L 1159 3500 
L 1159 2956 
Q 1341 3275 1631 3429 
Q 1922 3584 2338 3584 
Q 2397 3584 2469 3576 
Q 2541 3569 2628 3553 
L 2631 2963 
z
" transform="scale(0.015625)"/>
       <path id="DejaVuSans-67" d="M 2906 1791 
Q 2906 2416 2648 2759 
Q 2391 3103 1925 3103 
Q 1463 3103 1205 2759 
Q 947 2416 947 1791 
Q 947 1169 1205 825 
Q 1463 481 1925 481 
Q 2391 481 2648 825 
Q 2906 1169 2906 1791 
z
M 3481 434 
Q 3481 -459 3084 -895 
Q 2688 -1331 1869 -1331 
Q 1566 -1331 1297 -1286 
Q 1028 -1241 775 -1147 
L 775 -588 
Q 1028 -725 1275 -790 
Q 1522 -856 1778 -856 
Q 2344 -856 2625 -561 
Q 2906 -266 2906 331 
L 2906 616 
Q 2728 306 2450 153 
Q 2172 0 1784 0 
Q 1141 0 747 490 
Q 353 981 353 1791 
Q 353 2603 747 3093 
Q 1141 3584 1784 3584 
Q 2172 3584 2450 3431 
Q 2728 3278 2906 2969 
L 2906 3500 
L 3481 3500 
L 3481 434 
z
" transform="scale(0.015625)"/>
       <path id="DejaVuSans-52" d="M 2841 2188 
Q 3044 2119 3236 1894 
Q 3428 1669 3622 1275 
L 4263 0 
L 3584 0 
L 2988 1197 
Q 2756 1666 2539 1819 
Q 2322 1972 1947 1972 
L 1259 1972 
L 1259 0 
L 628 0 
L 628 4666 
L 2053 4666 
Q 2853 4666 3247 4331 
Q 3641 3997 3641 3322 
Q 3641 2881 3436 2590 
Q 3231 2300 2841 2188 
z
M 1259 4147 
L 1259 2491 
L 2053 2491 
Q 2509 2491 2742 2702 
Q 2975 2913 2975 3322 
Q 2975 3731 2742 3939 
Q 2509 4147 2053 4147 
L 1259 4147 
z
" transform="scale(0.015625)"/>
       <path id="DejaVuSans-4d" d="M 628 4666 
L 1569 4666 
L 2759 1491 
L 3956 4666 
L 4897 4666 
L 4897 0 
L 4281 0 
L 4281 4097 
L 3078 897 
L 2444 897 
L 1241 4097 
L 1241 0 
L 628 0 
L 628 4666 
z
" transform="scale(0.015625)"/>
       <path id="DejaVuSans-53" d="M 3425 4513 
L 3425 3897 
Q 3066 4069 2747 4153 
Q 2428 4238 2131 4238 
Q 1616 4238 1336 4038 
Q 1056 3838 1056 3469 
Q 1056 3159 1242 3001 
Q 1428 2844 1947 2747 
L 2328 2669 
Q 3034 2534 3370 2195 
Q 3706 1856 3706 1288 
Q 3706 609 3251 259 
Q 2797 -91 1919 -91 
Q 1588 -91 1214 -16 
Q 841 59 441 206 
L 441 856 
Q 825 641 1194 531 
Q 1563 422 1919 422 
Q 2459 422 2753 634 
Q 3047 847 3047 1241 
Q 3047 1584 2836 1778 
Q 2625 1972 2144 2069 
L 1759 2144 
Q 1053 2284 737 2584 
Q 422 2884 422 3419 
Q 422 4038 858 4394 
Q 1294 4750 2059 4750 
Q 2388 4750 2728 4690 
Q 3069 4631 3425 4513 
z
" transform="scale(0.015625)"/>
       <path id="DejaVuSans-45" d="M 628 4666 
L 3578 4666 
L 3578 4134 
L 1259 4134 
L 1259 2753 
L 3481 2753 
L 3481 2222 
L 1259 2222 
L 1259 531 
L 3634 531 
L 3634 0 
L 628 0 
L 628 4666 
z
" transform="scale(0.015625)"/>
       <path id="DejaVuSans-63" d="M 3122 3366 
L 3122 2828 
Q 2878 2963 2633 3030 
Q 2388 3097 2138 3097 
Q 1578 3097 1268 2742 
Q 959 2388 959 1747 
Q 959 1106 1268 751 
Q 1578 397 2138 397 
Q 2388 397 2633 464 
Q 2878 531 3122 666 
L 3122 134 
Q 2881 22 2623 -34 
Q 2366 -91 2075 -91 
Q 1284 -91 818 406 
Q 353 903 353 1747 
Q 353 2603 823 3093 
Q 1294 3584 2113 3584 
Q 2378 3584 2631 3529 
Q 2884 3475 3122 3366 
z
" transform="scale(0.015625)"/>
      </defs>
      <use xlink:href="#DejaVuSans-6d"/>
      <use xlink:href="#DejaVuSans-65" x="97.412109"/>
      <use xlink:href="#DejaVuSans-61" x="158.935547"/>
      <use xlink:href="#DejaVuSans-6e" x="220.214844"/>
      <use xlink:href="#DejaVuSans-20" x="283.59375"/>
      <use xlink:href="#DejaVuSans-6f" x="315.380859"/>
      <use xlink:href="#DejaVuSans-66" x="376.5625"/>
      <use xlink:href="#DejaVuSans-20" x="411.767578"/>
      <use xlink:href="#DejaVuSans-61" x="443.554688"/>
      <use xlink:href="#DejaVuSans-76" x="504.833984"/>
      <use xlink:href="#DejaVuSans-65" x="564.013672"/>
      <use xlink:href="#DejaVuSans-72" x="625.537109"/>
      <use xlink:href="#DejaVuSans-61" x="666.650391"/>
      <use xlink:href="#DejaVuSans-67" x="727.929688"/>
      <use xlink:href="#DejaVuSans-65" x="791.40625"/>
      <use xlink:href="#DejaVuSans-20" x="852.929688"/>
      <use xlink:href="#DejaVuSans-52" x="884.716797"/>
      <use xlink:href="#DejaVuSans-4d" x="954.199219"/>
      <use xlink:href="#DejaVuSans-53" x="1040.478516"/>
      <use xlink:href="#DejaVuSans-45" x="1103.955078"/>
      <use xlink:href="#DejaVuSans-20" x="1167.138672"/>
      <use xlink:href="#DejaVuSans-73" x="1198.925781"/>
      <use xlink:href="#DejaVuSans-63" x="1251.025391"/>
      <use xlink:href="#DejaVuSans-6f" x="1306.005859"/>
      <use xlink:href="#DejaVuSans-72" x="1367.1875"/>
      <use xlink:href="#DejaVuSans-65" x="1406.050781"/>
      <use xlink:href="#DejaVuSans-73" x="1467.574219"/>
     </g>
    </g>
   </g>
   <g id="line2d_27">
    <path d="M 85.815909 83.616999 
L 91.411133 139.973185 
L 97.006356 158.354969 
L 102.601579 168.724022 
L 108.196803 174.106435 
L 113.792026 178.536353 
L 119.38725 181.286758 
L 124.982473 182.953285 
L 130.577696 184.609588 
L 136.17292 185.669645 
L 141.768143 186.93148 
L 147.363367 188.356851 
L 152.95859 189.156336 
L 158.553814 189.608565 
L 164.149037 189.88321 
L 169.74426 190.340807 
L 175.339484 191.526981 
L 180.934707 191.399716 
L 186.529931 191.854699 
L 192.125154 192.302379 
L 197.720378 192.368124 
L 203.315601 192.912622 
L 208.910824 192.704111 
L 214.506048 192.79779 
L 220.101271 193.45583 
L 225.696495 193.66277 
L 231.291718 193.679345 
L 236.886941 193.873001 
L 242.482165 194.236796 
L 248.077388 194.198265 
L 253.672612 194.002717 
L 259.267835 194.508184 
L 264.863059 194.531626 
L 270.458282 194.426734 
L 276.053505 194.586623 
L 281.648729 194.698242 
L 287.243952 194.641747 
L 292.839176 194.967621 
L 298.434399 194.856957 
L 304.029622 195.298913 
L 309.624846 195.126808 
L 315.220069 195.552488 
L 320.815293 195.387508 
L 326.410516 195.448151 
L 332.00574 195.579443 
L 337.600963 195.475921 
L 343.196186 195.430737 
L 348.79141 195.655797 
L 354.386633 195.602885 
L 359.981857 195.571628 
L 365.57708 195.861543 
L 371.172304 195.611114 
L 376.767527 195.927938 
L 382.36275 196.005761 
L 387.957974 195.773026 
L 393.553197 196.049338 
L 399.148421 195.955018 
L 404.743644 196.098715 
L 410.338867 196.216973 
L 415.934091 196.150778 
" clip-path="url(#pdb41b72224)" style="fill: none; stroke: #00bfff; stroke-width: 1.5; stroke-linecap: square"/>
   </g>
   <g id="line2d_28">
    <path d="M 85.815909 161.29169 
L 91.411133 191.33065 
L 97.006356 200.983206 
L 102.601579 206.987592 
L 108.196803 209.852488 
L 113.792026 212.231772 
L 119.38725 213.217542 
L 124.982473 214.312101 
L 130.577696 215.020628 
L 136.17292 215.81331 
L 141.768143 216.374402 
L 147.363367 216.792948 
L 152.95859 217.14403 
L 158.553814 217.715504 
L 164.149037 217.925215 
L 169.74426 217.95541 
L 175.339484 218.218269 
L 180.934707 218.552746 
L 186.529931 218.699991 
L 192.125154 218.952648 
L 197.720378 218.922793 
L 203.315601 219.020539 
L 208.910824 219.129222 
L 214.506048 219.428875 
L 220.101271 219.378747 
L 225.696495 219.481594 
L 231.291718 219.659739 
L 236.886941 219.699183 
L 242.482165 219.888073 
L 248.077388 219.666787 
L 253.672612 219.99717 
L 259.267835 219.965192 
L 264.863059 219.94927 
L 270.458282 220.067911 
L 276.053505 220.079723 
L 281.648729 220.088019 
L 287.243952 220.380569 
L 292.839176 220.254824 
L 298.434399 220.433582 
L 304.029622 220.386681 
L 309.624846 220.43094 
L 315.220069 220.370037 
L 320.815293 220.408408 
L 326.410516 220.304951 
L 332.00574 220.505232 
L 337.600963 220.555269 
L 343.196186 220.613673 
L 348.79141 220.644018 
L 354.386633 220.660715 
L 359.981857 220.584391 
L 365.57708 220.749099 
L 371.172304 220.565451 
L 376.767527 220.69971 
L 382.36275 220.777647 
L 387.957974 220.612813 
L 393.553197 220.615033 
L 399.148421 220.711714 
L 404.743644 220.754706 
L 410.338867 220.712241 
L 415.934091 220.752101 
" clip-path="url(#pdb41b72224)" style="fill: none; stroke-dasharray: 7.5,7.5; stroke-dashoffset: 0; stroke: #006400; stroke-width: 1.5"/>
   </g>
   <g id="line2d_29">
    <path d="M 85.815909 180.137454 
L 91.411133 208.765938 
L 97.006356 218.216575 
L 102.601579 223.931964 
L 108.196803 226.718554 
L 113.792026 228.494518 
L 119.38725 229.548706 
L 124.982473 230.725223 
L 130.577696 231.550354 
L 136.17292 232.399036 
L 141.768143 232.774828 
L 147.363367 233.103503 
L 152.95859 233.448901 
L 158.553814 234.060777 
L 164.149037 234.066092 
L 169.74426 234.3316 
L 175.339484 234.525881 
L 180.934707 234.97949 
L 186.529931 234.969562 
L 192.125154 235.429033 
L 197.720378 235.312528 
L 203.315601 235.537559 
L 208.910824 235.422139 
L 214.506048 235.671148 
L 220.101271 235.72563 
L 225.696495 235.809644 
L 231.291718 235.980435 
L 236.886941 235.960849 
L 242.482165 236.026959 
L 248.077388 236.136224 
L 253.672612 236.137633 
L 259.267835 236.128609 
L 264.863059 236.170333 
L 270.458282 236.376856 
L 276.053505 236.424113 
L 281.648729 236.39163 
L 287.243952 236.467234 
L 292.839176 236.501976 
L 298.434399 236.55851 
L 304.029622 236.601912 
L 309.624846 236.79962 
L 315.220069 236.702273 
L 320.815293 236.77713 
L 326.410516 236.673849 
L 332.00574 236.750168 
L 337.600963 236.902164 
L 343.196186 236.889557 
L 348.79141 236.816896 
L 354.386633 236.862446 
L 359.981857 236.905723 
L 365.57708 237.01525 
L 371.172304 236.99805 
L 376.767527 236.993975 
L 382.36275 237.099981 
L 387.957974 236.917979 
L 393.553197 237.006726 
L 399.148421 236.989739 
L 404.743644 237.079542 
L 410.338867 237.02058 
L 415.934091 237.183154 
" clip-path="url(#pdb41b72224)" style="fill: none; stroke: #006400; stroke-width: 1.5; stroke-linecap: square"/>
   </g>
   <g id="line2d_30">
    <path d="M 91.411133 205.972022 
L 102.601579 230.871792 
L 113.792026 239.097613 
L 124.982473 243.922138 
L 136.17292 246.218704 
L 147.363367 248.050425 
L 158.553814 249.04042 
L 169.74426 249.787287 
L 180.934707 250.59242 
L 192.125154 251.109911 
L 203.315601 251.458822 
L 214.506048 252.122483 
L 225.696495 252.39885 
L 236.886941 252.745059 
L 248.077388 252.780565 
L 259.267835 252.964019 
L 270.458282 253.48037 
L 281.648729 253.489385 
L 292.839176 253.64346 
L 304.029622 253.916017 
L 315.220069 253.851191 
L 326.410516 254.173167 
L 337.600963 253.984434 
L 348.79141 254.016272 
L 359.981857 254.318336 
L 371.172304 254.431701 
L 382.36275 254.429278 
L 393.553197 254.537292 
L 404.743644 254.657826 
L 415.934091 254.657373 
" clip-path="url(#pdb41b72224)" style="fill: none; stroke: #9400d3; stroke-width: 1.5; stroke-linecap: square"/>
   </g>
   <g id="patch_3">
    <path d="M 69.31 274.12 
L 69.31 7.2 
" style="fill: none; stroke: #000000; stroke-width: 0.8; stroke-linejoin: miter; stroke-linecap: square"/>
   </g>
   <g id="patch_4">
    <path d="M 432.44 274.12 
L 432.44 7.2 
" style="fill: none; stroke: #000000; stroke-width: 0.8; stroke-linejoin: miter; stroke-linecap: square"/>
   </g>
   <g id="patch_5">
    <path d="M 69.31 274.12 
L 432.44 274.12 
" style="fill: none; stroke: #000000; stroke-width: 0.8; stroke-linejoin: miter; stroke-linecap: square"/>
   </g>
   <g id="patch_6">
    <path d="M 69.31 7.2 
L 432.44 7.2 
" style="fill: none; stroke: #000000; stroke-width: 0.8; stroke-linejoin: miter; stroke-linecap: square"/>
   </g>
   <g id="legend_1">
    <g id="patch_7">
     <path d="M 181.5075 113.94 
L 421.24 113.94 
Q 424.44 113.94 424.44 110.74 
L 424.44 18.4 
Q 424.44 15.2 421.24 15.2 
L 181.5075 15.2 
Q 178.3075 15.2 178.3075 18.4 
L 178.3075 110.74 
Q 178.3075 113.94 181.5075 113.94 
z
" style="fill: #ffffff; opacity: 0.8; stroke: #cccccc; stroke-linejoin: miter"/>
    </g>
    <g id="line2d_31">
     <path d="M 184.7075 28.1575 
L 200.7075 28.1575 
L 216.7075 28.1575 
" style="fill: none; stroke: #00bfff; stroke-width: 1.5; stroke-linecap: square"/>
    </g>
    <g id="text_16">
     <!-- GBERT -->
     <g transform="translate(229.5075 33.7575)scale(0.16 -0.16)">
      <defs>
       <path id="DejaVuSans-47" d="M 3809 666 
L 3809 1919 
L 2778 1919 
L 2778 2438 
L 4434 2438 
L 4434 434 
Q 4069 175 3628 42 
Q 3188 -91 2688 -91 
Q 1594 -91 976 548 
Q 359 1188 359 2328 
Q 359 3472 976 4111 
Q 1594 4750 2688 4750 
Q 3144 4750 3555 4637 
Q 3966 4525 4313 4306 
L 4313 3634 
Q 3963 3931 3569 4081 
Q 3175 4231 2741 4231 
Q 1884 4231 1454 3753 
Q 1025 3275 1025 2328 
Q 1025 1384 1454 906 
Q 1884 428 2741 428 
Q 3075 428 3337 486 
Q 3600 544 3809 666 
z
" transform="scale(0.015625)"/>
       <path id="DejaVuSans-42" d="M 1259 2228 
L 1259 519 
L 2272 519 
Q 2781 519 3026 730 
Q 3272 941 3272 1375 
Q 3272 1813 3026 2020 
Q 2781 2228 2272 2228 
L 1259 2228 
z
M 1259 4147 
L 1259 2741 
L 2194 2741 
Q 2656 2741 2882 2914 
Q 3109 3088 3109 3444 
Q 3109 3797 2882 3972 
Q 2656 4147 2194 4147 
L 1259 4147 
z
M 628 4666 
L 2241 4666 
Q 2963 4666 3353 4366 
Q 3744 4066 3744 3513 
Q 3744 3084 3544 2831 
Q 3344 2578 2956 2516 
Q 3422 2416 3680 2098 
Q 3938 1781 3938 1306 
Q 3938 681 3513 340 
Q 3088 0 2303 0 
L 628 0 
L 628 4666 
z
" transform="scale(0.015625)"/>
       <path id="DejaVuSans-54" d="M -19 4666 
L 3928 4666 
L 3928 4134 
L 2272 4134 
L 2272 0 
L 1638 0 
L 1638 4134 
L -19 4134 
L -19 4666 
z
" transform="scale(0.015625)"/>
      </defs>
      <use xlink:href="#DejaVuSans-47"/>
      <use xlink:href="#DejaVuSans-42" x="77.490234"/>
      <use xlink:href="#DejaVuSans-45" x="146.09375"/>
      <use xlink:href="#DejaVuSans-52" x="209.277344"/>
      <use xlink:href="#DejaVuSans-54" x="271.509766"/>
     </g>
    </g>
    <g id="line2d_32">
     <path d="M 184.7075 51.6425 
L 200.7075 51.6425 
L 216.7075 51.6425 
" style="fill: none; stroke-dasharray: 7.5,7.5; stroke-dashoffset: 0; stroke: #006400; stroke-width: 1.5"/>
    </g>
    <g id="text_17">
     <!-- GPT-2-W w/o read. feat. -->
     <g transform="translate(229.5075 57.2425)scale(0.16 -0.16)">
      <defs>
       <path id="DejaVuSans-50" d="M 1259 4147 
L 1259 2394 
L 2053 2394 
Q 2494 2394 2734 2622 
Q 2975 2850 2975 3272 
Q 2975 3691 2734 3919 
Q 2494 4147 2053 4147 
L 1259 4147 
z
M 628 4666 
L 2053 4666 
Q 2838 4666 3239 4311 
Q 3641 3956 3641 3272 
Q 3641 2581 3239 2228 
Q 2838 1875 2053 1875 
L 1259 1875 
L 1259 0 
L 628 0 
L 628 4666 
z
" transform="scale(0.015625)"/>
       <path id="DejaVuSans-2d" d="M 313 2009 
L 1997 2009 
L 1997 1497 
L 313 1497 
L 313 2009 
z
" transform="scale(0.015625)"/>
       <path id="DejaVuSans-57" d="M 213 4666 
L 850 4666 
L 1831 722 
L 2809 4666 
L 3519 4666 
L 4500 722 
L 5478 4666 
L 6119 4666 
L 4947 0 
L 4153 0 
L 3169 4050 
L 2175 0 
L 1381 0 
L 213 4666 
z
" transform="scale(0.015625)"/>
       <path id="DejaVuSans-77" d="M 269 3500 
L 844 3500 
L 1563 769 
L 2278 3500 
L 2956 3500 
L 3675 769 
L 4391 3500 
L 4966 3500 
L 4050 0 
L 3372 0 
L 2619 2869 
L 1863 0 
L 1184 0 
L 269 3500 
z
" transform="scale(0.015625)"/>
       <path id="DejaVuSans-2f" d="M 1625 4666 
L 2156 4666 
L 531 -594 
L 0 -594 
L 1625 4666 
z
" transform="scale(0.015625)"/>
       <path id="DejaVuSans-64" d="M 2906 2969 
L 2906 4863 
L 3481 4863 
L 3481 0 
L 2906 0 
L 2906 525 
Q 2725 213 2448 61 
Q 2172 -91 1784 -91 
Q 1150 -91 751 415 
Q 353 922 353 1747 
Q 353 2572 751 3078 
Q 1150 3584 1784 3584 
Q 2172 3584 2448 3432 
Q 2725 3281 2906 2969 
z
M 947 1747 
Q 947 1113 1208 752 
Q 1469 391 1925 391 
Q 2381 391 2643 752 
Q 2906 1113 2906 1747 
Q 2906 2381 2643 2742 
Q 2381 3103 1925 3103 
Q 1469 3103 1208 2742 
Q 947 2381 947 1747 
z
" transform="scale(0.015625)"/>
       <path id="DejaVuSans-74" d="M 1172 4494 
L 1172 3500 
L 2356 3500 
L 2356 3053 
L 1172 3053 
L 1172 1153 
Q 1172 725 1289 603 
Q 1406 481 1766 481 
L 2356 481 
L 2356 0 
L 1766 0 
Q 1100 0 847 248 
Q 594 497 594 1153 
L 594 3053 
L 172 3053 
L 172 3500 
L 594 3500 
L 594 4494 
L 1172 4494 
z
" transform="scale(0.015625)"/>
      </defs>
      <use xlink:href="#DejaVuSans-47"/>
      <use xlink:href="#DejaVuSans-50" x="77.490234"/>
      <use xlink:href="#DejaVuSans-54" x="137.792969"/>
      <use xlink:href="#DejaVuSans-2d" x="189.751953"/>
      <use xlink:href="#DejaVuSans-32" x="225.835938"/>
      <use xlink:href="#DejaVuSans-2d" x="289.458984"/>
      <use xlink:href="#DejaVuSans-57" x="321.542969"/>
      <use xlink:href="#DejaVuSans-20" x="420.419922"/>
      <use xlink:href="#DejaVuSans-77" x="452.207031"/>
      <use xlink:href="#DejaVuSans-2f" x="533.994141"/>
      <use xlink:href="#DejaVuSans-6f" x="567.685547"/>
      <use xlink:href="#DejaVuSans-20" x="628.867188"/>
      <use xlink:href="#DejaVuSans-72" x="660.654297"/>
      <use xlink:href="#DejaVuSans-65" x="699.517578"/>
      <use xlink:href="#DejaVuSans-61" x="761.041016"/>
      <use xlink:href="#DejaVuSans-64" x="822.320312"/>
      <use xlink:href="#DejaVuSans-2e" x="885.796875"/>
      <use xlink:href="#DejaVuSans-20" x="917.583984"/>
      <use xlink:href="#DejaVuSans-66" x="949.371094"/>
      <use xlink:href="#DejaVuSans-65" x="984.576172"/>
      <use xlink:href="#DejaVuSans-61" x="1046.099609"/>
      <use xlink:href="#DejaVuSans-74" x="1107.378906"/>
      <use xlink:href="#DejaVuSans-2e" x="1146.587891"/>
     </g>
    </g>
    <g id="line2d_33">
     <path d="M 184.7075 75.1275 
L 200.7075 75.1275 
L 216.7075 75.1275 
" style="fill: none; stroke: #006400; stroke-width: 1.5; stroke-linecap: square"/>
    </g>
    <g id="text_18">
     <!-- GPT-2-W -->
     <g transform="translate(229.5075 80.7275)scale(0.16 -0.16)">
      <use xlink:href="#DejaVuSans-47"/>
      <use xlink:href="#DejaVuSans-50" x="77.490234"/>
      <use xlink:href="#DejaVuSans-54" x="137.792969"/>
      <use xlink:href="#DejaVuSans-2d" x="189.751953"/>
      <use xlink:href="#DejaVuSans-32" x="225.835938"/>
      <use xlink:href="#DejaVuSans-2d" x="289.458984"/>
      <use xlink:href="#DejaVuSans-57" x="321.542969"/>
     </g>
    </g>
    <g id="line2d_34">
     <path d="M 184.7075 98.6125 
L 200.7075 98.6125 
L 216.7075 98.6125 
" style="fill: none; stroke: #9400d3; stroke-width: 1.5; stroke-linecap: square"/>
    </g>
    <g id="text_19">
     <!-- GPT-2-W + GBERT -->
     <g transform="translate(229.5075 104.2125)scale(0.16 -0.16)">
      <defs>
       <path id="DejaVuSans-2b" d="M 2944 4013 
L 2944 2272 
L 4684 2272 
L 4684 1741 
L 2944 1741 
L 2944 0 
L 2419 0 
L 2419 1741 
L 678 1741 
L 678 2272 
L 2419 2272 
L 2419 4013 
L 2944 4013 
z
" transform="scale(0.015625)"/>
      </defs>
      <use xlink:href="#DejaVuSans-47"/>
      <use xlink:href="#DejaVuSans-50" x="77.490234"/>
      <use xlink:href="#DejaVuSans-54" x="137.792969"/>
      <use xlink:href="#DejaVuSans-2d" x="189.751953"/>
      <use xlink:href="#DejaVuSans-32" x="225.835938"/>
      <use xlink:href="#DejaVuSans-2d" x="289.458984"/>
      <use xlink:href="#DejaVuSans-57" x="321.542969"/>
      <use xlink:href="#DejaVuSans-20" x="420.419922"/>
      <use xlink:href="#DejaVuSans-2b" x="452.207031"/>
      <use xlink:href="#DejaVuSans-20" x="535.996094"/>
      <use xlink:href="#DejaVuSans-47" x="567.783203"/>
      <use xlink:href="#DejaVuSans-42" x="645.273438"/>
      <use xlink:href="#DejaVuSans-45" x="713.876953"/>
      <use xlink:href="#DejaVuSans-52" x="777.060547"/>
      <use xlink:href="#DejaVuSans-54" x="839.292969"/>
     </g>
    </g>
   </g>
  </g>
 </g>
 <defs>
  <clipPath id="pdb41b72224">
   <rect x="69.31" y="7.2" width="363.13" height="266.92"/>
  </clipPath>
 </defs>
</svg>
